<mxfile host="app.diagrams.net" modified="2021-03-15T02:43:46.681Z" agent="5.0 (Windows NT 10.0; Win64; x64) AppleWebKit/537.36 (KHTML, like Gecko) Chrome/88.0.4324.190 Safari/537.36" etag="N4dwLSjwLTbVWvXYstX0" version="14.4.2" type="github" pages="2">
  <diagram name="Page-1" id="e7e014a7-5840-1c2e-5031-d8a46d1fe8dd">
    <mxGraphModel dx="1422" dy="794" grid="1" gridSize="10" guides="1" tooltips="1" connect="1" arrows="1" fold="1" page="1" pageScale="1" pageWidth="1169" pageHeight="826" background="#ffffff" math="0" shadow="0">
      <root>
        <mxCell id="0" />
        <mxCell id="1" parent="0" />
        <mxCell id="2" value="Thread 1" style="swimlane;whiteSpace=wrap" parent="1" vertex="1">
          <mxGeometry x="164.5" y="128" width="280" height="570" as="geometry" />
        </mxCell>
        <mxCell id="5" value="" style="ellipse;shape=startState;fillColor=#000000;strokeColor=#ff0000;" parent="2" vertex="1">
          <mxGeometry x="100" y="40" width="30" height="30" as="geometry" />
        </mxCell>
        <mxCell id="6" value="" style="edgeStyle=elbowEdgeStyle;elbow=horizontal;verticalAlign=bottom;endArrow=open;endSize=8;strokeColor=#FF0000;endFill=1;rounded=0" parent="2" source="5" target="7" edge="1">
          <mxGeometry x="100" y="40" as="geometry">
            <mxPoint x="115" y="110" as="targetPoint" />
          </mxGeometry>
        </mxCell>
        <mxCell id="7" value="idle" style="" parent="2" vertex="1">
          <mxGeometry x="60" y="110" width="110" height="50" as="geometry" />
        </mxCell>
        <mxCell id="8" value="user action" style="" parent="2" vertex="1">
          <mxGeometry x="60" y="220" width="110" height="50" as="geometry" />
        </mxCell>
        <mxCell id="9" value="" style="endArrow=open;strokeColor=#FF0000;endFill=1;rounded=0" parent="2" source="7" target="8" edge="1">
          <mxGeometry relative="1" as="geometry" />
        </mxCell>
        <mxCell id="10" value="post command" style="" parent="2" vertex="1">
          <mxGeometry x="60" y="325" width="110" height="50" as="geometry" />
        </mxCell>
        <mxCell id="11" value="" style="endArrow=open;strokeColor=#FF0000;endFill=1;rounded=0" parent="2" source="8" target="10" edge="1">
          <mxGeometry relative="1" as="geometry" />
        </mxCell>
        <mxCell id="12" value="" style="edgeStyle=elbowEdgeStyle;elbow=horizontal;strokeColor=#FF0000;endArrow=open;endFill=1;rounded=0" parent="2" source="10" target="7" edge="1">
          <mxGeometry width="100" height="100" relative="1" as="geometry">
            <mxPoint x="160" y="290" as="sourcePoint" />
            <mxPoint x="260" y="190" as="targetPoint" />
            <Array as="points">
              <mxPoint x="30" y="250" />
            </Array>
          </mxGeometry>
        </mxCell>
        <mxCell id="3" value="Thread 2" style="swimlane;whiteSpace=wrap" parent="1" vertex="1">
          <mxGeometry x="444.5" y="128" width="280" height="570" as="geometry" />
        </mxCell>
        <mxCell id="13" value="" style="ellipse;shape=startState;fillColor=#000000;strokeColor=#ff0000;" parent="3" vertex="1">
          <mxGeometry x="60" y="40" width="30" height="30" as="geometry" />
        </mxCell>
        <mxCell id="14" value="" style="edgeStyle=elbowEdgeStyle;elbow=horizontal;verticalAlign=bottom;endArrow=open;endSize=8;strokeColor=#FF0000;endFill=1;rounded=0" parent="3" source="13" target="15" edge="1">
          <mxGeometry x="40" y="20" as="geometry">
            <mxPoint x="55" y="90" as="targetPoint" />
          </mxGeometry>
        </mxCell>
        <mxCell id="15" value="idle" style="" parent="3" vertex="1">
          <mxGeometry x="20" y="110" width="110" height="50" as="geometry" />
        </mxCell>
        <mxCell id="16" value="check for &#xa;new commands" style="" parent="3" vertex="1">
          <mxGeometry x="20" y="220" width="110" height="50" as="geometry" />
        </mxCell>
        <mxCell id="17" value="" style="endArrow=open;strokeColor=#FF0000;endFill=1;rounded=0" parent="3" source="15" target="16" edge="1">
          <mxGeometry relative="1" as="geometry" />
        </mxCell>
        <mxCell id="18" value="command queue" style="" parent="3" vertex="1">
          <mxGeometry x="20" y="325" width="110" height="50" as="geometry" />
        </mxCell>
        <mxCell id="19" value="" style="endArrow=open;strokeColor=#FF0000;endFill=1;rounded=0" parent="3" source="16" target="18" edge="1">
          <mxGeometry relative="1" as="geometry" />
        </mxCell>
        <mxCell id="21" value="queue empty" style="rhombus;fillColor=#ffffc0;strokeColor=#ff0000;" parent="3" vertex="1">
          <mxGeometry x="150" y="225" width="80" height="40" as="geometry" />
        </mxCell>
        <mxCell id="22" value="yes" style="edgeStyle=elbowEdgeStyle;elbow=horizontal;align=left;verticalAlign=bottom;endArrow=open;endSize=8;strokeColor=#FF0000;exitX=0.5;exitY=0;endFill=1;rounded=0;entryX=0.75;entryY=0.5;entryPerimeter=0" parent="3" source="21" target="25" edge="1">
          <mxGeometry x="-1" relative="1" as="geometry">
            <mxPoint x="160" y="150" as="targetPoint" />
            <Array as="points">
              <mxPoint x="190" y="180" />
            </Array>
          </mxGeometry>
        </mxCell>
        <mxCell id="aKczXWRM7gR1bwHFEIvT-41" value="Text" style="edgeLabel;html=1;align=center;verticalAlign=middle;resizable=0;points=[];" vertex="1" connectable="0" parent="22">
          <mxGeometry x="-0.2711" y="1" relative="1" as="geometry">
            <mxPoint x="1" as="offset" />
          </mxGeometry>
        </mxCell>
        <mxCell id="23" value="no" style="edgeStyle=elbowEdgeStyle;elbow=horizontal;align=left;verticalAlign=top;endArrow=open;endSize=8;strokeColor=#FF0000;endFill=1;rounded=0" parent="3" source="21" target="30" edge="1">
          <mxGeometry x="-1" relative="1" as="geometry">
            <mxPoint x="190" y="305" as="targetPoint" />
          </mxGeometry>
        </mxCell>
        <mxCell id="24" value="" style="endArrow=open;strokeColor=#FF0000;endFill=1;rounded=0" parent="3" source="16" target="21" edge="1">
          <mxGeometry relative="1" as="geometry" />
        </mxCell>
        <mxCell id="25" value="" style="shape=line;strokeWidth=6;strokeColor=#ff0000;rotation=90" parent="3" vertex="1">
          <mxGeometry x="130" y="127.5" width="50" height="15" as="geometry" />
        </mxCell>
        <mxCell id="26" value="" style="edgeStyle=elbowEdgeStyle;elbow=horizontal;verticalAlign=bottom;endArrow=open;endSize=8;strokeColor=#FF0000;endFill=1;rounded=0" parent="3" source="25" target="15" edge="1">
          <mxGeometry x="130" y="90" as="geometry">
            <mxPoint x="230" y="140" as="targetPoint" />
          </mxGeometry>
        </mxCell>
        <mxCell id="30" value="dispatch&#xa;command&#xa;worker thread" style="" parent="3" vertex="1">
          <mxGeometry x="140" y="325" width="110" height="50" as="geometry" />
        </mxCell>
        <mxCell id="31" value="critical&#xa;section" style="shape=note;whiteSpace=wrap;size=17" parent="3" vertex="1">
          <mxGeometry x="105" y="490" width="100" height="50" as="geometry" />
        </mxCell>
        <mxCell id="32" value="" style="endArrow=none;strokeColor=#FF0000;endFill=0;rounded=0;dashed=1" parent="3" source="18" target="31" edge="1">
          <mxGeometry relative="1" as="geometry" />
        </mxCell>
        <mxCell id="34" value="" style="whiteSpace=wrap;strokeColor=#FF0000;fillColor=#FF0000" parent="3" vertex="1">
          <mxGeometry x="245" y="395" width="5" height="45" as="geometry" />
        </mxCell>
        <mxCell id="41" value="" style="edgeStyle=elbowEdgeStyle;elbow=horizontal;entryX=0;entryY=0.5;strokeColor=#FF0000;endArrow=open;endFill=1;rounded=0" parent="3" source="30" target="34" edge="1">
          <mxGeometry width="100" height="100" relative="1" as="geometry">
            <mxPoint x="60" y="480" as="sourcePoint" />
            <mxPoint x="160" y="380" as="targetPoint" />
            <Array as="points">
              <mxPoint x="195" y="400" />
            </Array>
          </mxGeometry>
        </mxCell>
        <mxCell id="4" value="Thread 3" style="swimlane;whiteSpace=wrap" parent="1" vertex="1">
          <mxGeometry x="724.5" y="128" width="280" height="570" as="geometry" />
        </mxCell>
        <mxCell id="33" value="process&#xa;command" style="" parent="4" vertex="1">
          <mxGeometry x="90" y="405" width="110" height="50" as="geometry" />
        </mxCell>
        <mxCell id="35" value="" style="edgeStyle=elbowEdgeStyle;elbow=horizontal;strokeColor=#FF0000;endArrow=open;endFill=1;rounded=0;entryX=0.25;entryY=0.5;entryPerimeter=0" parent="4" target="25" edge="1">
          <mxGeometry width="100" height="100" relative="1" as="geometry">
            <mxPoint x="-30" y="410" as="sourcePoint" />
            <mxPoint x="-120" y="120" as="targetPoint" />
            <Array as="points">
              <mxPoint x="-10" y="135" />
            </Array>
          </mxGeometry>
        </mxCell>
        <mxCell id="37" value="" style="edgeStyle=none;strokeColor=#FF0000;endArrow=open;endFill=1;rounded=0" parent="4" target="33" edge="1">
          <mxGeometry width="100" height="100" relative="1" as="geometry">
            <mxPoint x="-30" y="429.5" as="sourcePoint" />
            <mxPoint x="90" y="429.5" as="targetPoint" />
          </mxGeometry>
        </mxCell>
        <mxCell id="38" value="" style="ellipse;shape=endState;fillColor=#000000;strokeColor=#ff0000" parent="4" vertex="1">
          <mxGeometry x="130" y="500" width="30" height="30" as="geometry" />
        </mxCell>
        <mxCell id="39" value="" style="endArrow=open;strokeColor=#FF0000;endFill=1;rounded=0" parent="4" source="33" target="38" edge="1">
          <mxGeometry relative="1" as="geometry" />
        </mxCell>
        <mxCell id="20" value="" style="endArrow=open;strokeColor=#FF0000;endFill=1;rounded=0" parent="1" source="10" target="18" edge="1">
          <mxGeometry relative="1" as="geometry" />
        </mxCell>
      </root>
    </mxGraphModel>
  </diagram>
  <diagram id="c1AuLAwbMeSonQJ_YPXn" name="第 2 页">
    <mxGraphModel dx="1422" dy="794" grid="1" gridSize="10" guides="1" tooltips="1" connect="1" arrows="1" fold="1" page="1" pageScale="1" pageWidth="1654" pageHeight="2336" math="0" shadow="0">
      <root>
        <mxCell id="Cn_z-d5cZoHQZC6IPEJ7-0" />
        <mxCell id="Cn_z-d5cZoHQZC6IPEJ7-1" parent="Cn_z-d5cZoHQZC6IPEJ7-0" />
        <mxCell id="Cn_z-d5cZoHQZC6IPEJ7-2" value="小程序" style="swimlane;" vertex="1" parent="Cn_z-d5cZoHQZC6IPEJ7-1">
          <mxGeometry x="40" y="100" width="260" height="760" as="geometry">
            <mxRectangle x="40" y="100" width="70" height="23" as="alternateBounds" />
          </mxGeometry>
        </mxCell>
        <mxCell id="Cn_z-d5cZoHQZC6IPEJ7-4" value="&lt;br&gt;&lt;br&gt;代理商" style="shape=actor;whiteSpace=wrap;html=1;" vertex="1" parent="Cn_z-d5cZoHQZC6IPEJ7-2">
          <mxGeometry y="190" width="40" height="50" as="geometry" />
        </mxCell>
        <mxCell id="Cn_z-d5cZoHQZC6IPEJ7-6" value="申请提现" style="shape=process;whiteSpace=wrap;html=1;backgroundOutline=1;" vertex="1" parent="Cn_z-d5cZoHQZC6IPEJ7-2">
          <mxGeometry x="90" y="70" width="120" height="60" as="geometry" />
        </mxCell>
        <mxCell id="X7omMuUb_odI4xtAwAQJ-1" value="状态消息" style="rounded=0;whiteSpace=wrap;html=1;dashed=1;" vertex="1" parent="Cn_z-d5cZoHQZC6IPEJ7-2">
          <mxGeometry x="90" y="195" width="120" height="40" as="geometry" />
        </mxCell>
        <mxCell id="X7omMuUb_odI4xtAwAQJ-2" value="提现记录&lt;br&gt;（待审核）" style="rounded=0;whiteSpace=wrap;html=1;" vertex="1" parent="Cn_z-d5cZoHQZC6IPEJ7-2">
          <mxGeometry x="90" y="270" width="120" height="40" as="geometry" />
        </mxCell>
        <mxCell id="X7omMuUb_odI4xtAwAQJ-3" value="提现记录&lt;br&gt;（拒绝）" style="rounded=0;whiteSpace=wrap;html=1;" vertex="1" parent="Cn_z-d5cZoHQZC6IPEJ7-2">
          <mxGeometry x="90" y="350" width="120" height="40" as="geometry" />
        </mxCell>
        <mxCell id="X7omMuUb_odI4xtAwAQJ-4" value="提现记录&lt;br&gt;（通过）" style="rounded=0;whiteSpace=wrap;html=1;" vertex="1" parent="Cn_z-d5cZoHQZC6IPEJ7-2">
          <mxGeometry x="90" y="440" width="120" height="40" as="geometry" />
        </mxCell>
        <mxCell id="yOeyIR5VE72a3LLRmRfE-23" style="edgeStyle=orthogonalEdgeStyle;rounded=0;orthogonalLoop=1;jettySize=auto;html=1;entryX=0;entryY=0.5;entryDx=0;entryDy=0;" edge="1" parent="Cn_z-d5cZoHQZC6IPEJ7-2" source="Cn_z-d5cZoHQZC6IPEJ7-4" target="Cn_z-d5cZoHQZC6IPEJ7-6">
          <mxGeometry relative="1" as="geometry">
            <mxPoint x="20" y="100" as="targetPoint" />
            <Array as="points">
              <mxPoint x="20" y="100" />
            </Array>
          </mxGeometry>
        </mxCell>
        <mxCell id="yOeyIR5VE72a3LLRmRfE-30" value="" style="endArrow=classic;html=1;entryX=0.9;entryY=0.5;entryDx=0;entryDy=0;entryPerimeter=0;exitX=0;exitY=0.5;exitDx=0;exitDy=0;" edge="1" parent="Cn_z-d5cZoHQZC6IPEJ7-2" source="X7omMuUb_odI4xtAwAQJ-1" target="Cn_z-d5cZoHQZC6IPEJ7-4">
          <mxGeometry width="50" height="50" relative="1" as="geometry">
            <mxPoint x="90" y="240" as="sourcePoint" />
            <mxPoint x="60" y="240" as="targetPoint" />
            <Array as="points" />
          </mxGeometry>
        </mxCell>
        <mxCell id="Cn_z-d5cZoHQZC6IPEJ7-8" value="api接口" style="swimlane;" vertex="1" parent="Cn_z-d5cZoHQZC6IPEJ7-1">
          <mxGeometry x="500" y="80" width="370" height="760" as="geometry" />
        </mxCell>
        <mxCell id="Cn_z-d5cZoHQZC6IPEJ7-20" style="edgeStyle=orthogonalEdgeStyle;rounded=0;orthogonalLoop=1;jettySize=auto;html=1;entryX=0.5;entryY=0;entryDx=0;entryDy=0;" edge="1" parent="Cn_z-d5cZoHQZC6IPEJ7-8" source="Cn_z-d5cZoHQZC6IPEJ7-13" target="Cn_z-d5cZoHQZC6IPEJ7-14">
          <mxGeometry relative="1" as="geometry" />
        </mxCell>
        <mxCell id="Cn_z-d5cZoHQZC6IPEJ7-13" value="储备金余额充足" style="rounded=0;whiteSpace=wrap;html=1;" vertex="1" parent="Cn_z-d5cZoHQZC6IPEJ7-8">
          <mxGeometry x="140" y="40" width="120" height="40" as="geometry" />
        </mxCell>
        <mxCell id="Cn_z-d5cZoHQZC6IPEJ7-21" style="edgeStyle=orthogonalEdgeStyle;rounded=0;orthogonalLoop=1;jettySize=auto;html=1;entryX=0.5;entryY=0;entryDx=0;entryDy=0;" edge="1" parent="Cn_z-d5cZoHQZC6IPEJ7-8" source="Cn_z-d5cZoHQZC6IPEJ7-14" target="Cn_z-d5cZoHQZC6IPEJ7-15">
          <mxGeometry relative="1" as="geometry" />
        </mxCell>
        <mxCell id="Cn_z-d5cZoHQZC6IPEJ7-14" value="有可退款的充值记录" style="rounded=0;whiteSpace=wrap;html=1;" vertex="1" parent="Cn_z-d5cZoHQZC6IPEJ7-8">
          <mxGeometry x="140" y="110" width="120" height="40" as="geometry" />
        </mxCell>
        <mxCell id="Cn_z-d5cZoHQZC6IPEJ7-22" style="edgeStyle=orthogonalEdgeStyle;rounded=0;orthogonalLoop=1;jettySize=auto;html=1;entryX=0.5;entryY=0;entryDx=0;entryDy=0;" edge="1" parent="Cn_z-d5cZoHQZC6IPEJ7-8" source="Cn_z-d5cZoHQZC6IPEJ7-15" target="Cn_z-d5cZoHQZC6IPEJ7-16">
          <mxGeometry relative="1" as="geometry" />
        </mxCell>
        <mxCell id="Cn_z-d5cZoHQZC6IPEJ7-15" value="更新充值记录的&lt;br&gt;已退款金额" style="rounded=0;whiteSpace=wrap;html=1;" vertex="1" parent="Cn_z-d5cZoHQZC6IPEJ7-8">
          <mxGeometry x="140" y="180" width="120" height="50" as="geometry" />
        </mxCell>
        <mxCell id="Cn_z-d5cZoHQZC6IPEJ7-23" style="edgeStyle=orthogonalEdgeStyle;rounded=0;orthogonalLoop=1;jettySize=auto;html=1;entryX=0.5;entryY=0;entryDx=0;entryDy=0;" edge="1" parent="Cn_z-d5cZoHQZC6IPEJ7-8" source="Cn_z-d5cZoHQZC6IPEJ7-16" target="Cn_z-d5cZoHQZC6IPEJ7-17">
          <mxGeometry relative="1" as="geometry" />
        </mxCell>
        <mxCell id="Cn_z-d5cZoHQZC6IPEJ7-16" value="新增提现记录" style="rounded=0;whiteSpace=wrap;html=1;" vertex="1" parent="Cn_z-d5cZoHQZC6IPEJ7-8">
          <mxGeometry x="140" y="260" width="120" height="40" as="geometry" />
        </mxCell>
        <mxCell id="Cn_z-d5cZoHQZC6IPEJ7-24" style="edgeStyle=orthogonalEdgeStyle;rounded=0;orthogonalLoop=1;jettySize=auto;html=1;entryX=0.5;entryY=0;entryDx=0;entryDy=0;" edge="1" parent="Cn_z-d5cZoHQZC6IPEJ7-8" source="Cn_z-d5cZoHQZC6IPEJ7-17" target="Cn_z-d5cZoHQZC6IPEJ7-18">
          <mxGeometry relative="1" as="geometry" />
        </mxCell>
        <mxCell id="Cn_z-d5cZoHQZC6IPEJ7-17" value="添加汇付退款记录" style="rounded=0;whiteSpace=wrap;html=1;" vertex="1" parent="Cn_z-d5cZoHQZC6IPEJ7-8">
          <mxGeometry x="140" y="330" width="120" height="40" as="geometry" />
        </mxCell>
        <mxCell id="Cn_z-d5cZoHQZC6IPEJ7-18" value="添加储备金明细记录" style="rounded=0;whiteSpace=wrap;html=1;" vertex="1" parent="Cn_z-d5cZoHQZC6IPEJ7-8">
          <mxGeometry x="140" y="400" width="120" height="40" as="geometry" />
        </mxCell>
        <mxCell id="Cn_z-d5cZoHQZC6IPEJ7-19" value="更新代理商&lt;br&gt;储备金余额&lt;br&gt;和 累计消耗储备金" style="rounded=0;whiteSpace=wrap;html=1;" vertex="1" parent="Cn_z-d5cZoHQZC6IPEJ7-8">
          <mxGeometry x="140" y="473" width="120" height="50" as="geometry" />
        </mxCell>
        <mxCell id="8oQ-91jc9foF94IGNzBg-0" value="" style="strokeWidth=2;html=1;shape=mxgraph.flowchart.annotation_1;align=left;pointerEvents=1;" vertex="1" parent="Cn_z-d5cZoHQZC6IPEJ7-8">
          <mxGeometry x="122" y="70" width="20" height="440" as="geometry" />
        </mxCell>
        <mxCell id="X7omMuUb_odI4xtAwAQJ-0" value="条件成立" style="strokeWidth=2;html=1;shape=mxgraph.flowchart.decision;whiteSpace=wrap;" vertex="1" parent="Cn_z-d5cZoHQZC6IPEJ7-8">
          <mxGeometry x="30" y="170" width="70" height="100" as="geometry" />
        </mxCell>
        <mxCell id="yOeyIR5VE72a3LLRmRfE-0" value="" style="endArrow=classic;html=1;exitX=0;exitY=0.5;exitDx=0;exitDy=0;exitPerimeter=0;strokeColor=#FF6666;" edge="1" parent="Cn_z-d5cZoHQZC6IPEJ7-8" source="X7omMuUb_odI4xtAwAQJ-0">
          <mxGeometry relative="1" as="geometry">
            <mxPoint x="25" y="220.5" as="sourcePoint" />
            <mxPoint x="-80" y="221" as="targetPoint" />
          </mxGeometry>
        </mxCell>
        <mxCell id="yOeyIR5VE72a3LLRmRfE-1" value="否" style="edgeLabel;resizable=0;html=1;align=center;verticalAlign=middle;" connectable="0" vertex="1" parent="yOeyIR5VE72a3LLRmRfE-0">
          <mxGeometry relative="1" as="geometry">
            <mxPoint x="38" y="-0.5" as="offset" />
          </mxGeometry>
        </mxCell>
        <mxCell id="NsUDPSb2mLZtXg8WYORT-0" value="" style="whiteSpace=wrap;fillColor=#009900;strokeColor=#009900;" vertex="1" parent="Cn_z-d5cZoHQZC6IPEJ7-8">
          <mxGeometry x="31" y="286" width="60.5" height="7" as="geometry" />
        </mxCell>
        <mxCell id="NsUDPSb2mLZtXg8WYORT-6" value="是" style="text;html=1;align=center;verticalAlign=middle;resizable=0;points=[];autosize=1;" vertex="1" parent="Cn_z-d5cZoHQZC6IPEJ7-8">
          <mxGeometry x="50" y="268" width="30" height="20" as="geometry" />
        </mxCell>
        <mxCell id="NsUDPSb2mLZtXg8WYORT-192" value="" style="endArrow=classic;html=1;strokeWidth=1;entryX=1;entryY=0.5;entryDx=0;entryDy=0;entryPerimeter=0;" edge="1" parent="Cn_z-d5cZoHQZC6IPEJ7-8" target="X7omMuUb_odI4xtAwAQJ-0">
          <mxGeometry width="50" height="50" relative="1" as="geometry">
            <mxPoint x="120" y="220" as="sourcePoint" />
            <mxPoint x="170" y="170" as="targetPoint" />
          </mxGeometry>
        </mxCell>
        <mxCell id="cPukek1dgGj2Ov7jdAaH-1" value="RabbitMQ" style="swimlane;fontStyle=0;childLayout=stackLayout;horizontal=1;startSize=26;fillColor=none;horizontalStack=0;resizeParent=1;resizeParentMax=0;resizeLast=0;collapsible=1;marginBottom=0;comic=0;strokeColor=#666666;strokeWidth=1;" vertex="1" parent="Cn_z-d5cZoHQZC6IPEJ7-8">
          <mxGeometry x="200" y="560" width="140" height="104" as="geometry" />
        </mxCell>
        <mxCell id="cPukek1dgGj2Ov7jdAaH-2" value="1、创建退款参数" style="text;strokeColor=none;fillColor=none;align=left;verticalAlign=top;spacingLeft=4;spacingRight=4;overflow=hidden;rotatable=0;points=[[0,0.5],[1,0.5]];portConstraint=eastwest;" vertex="1" parent="cPukek1dgGj2Ov7jdAaH-1">
          <mxGeometry y="26" width="140" height="26" as="geometry" />
        </mxCell>
        <mxCell id="cPukek1dgGj2Ov7jdAaH-3" value="2、发起退款请求&#xa;" style="text;strokeColor=none;fillColor=none;align=left;verticalAlign=top;spacingLeft=4;spacingRight=4;overflow=hidden;rotatable=0;points=[[0,0.5],[1,0.5]];portConstraint=eastwest;perimeterSpacing=1;" vertex="1" parent="cPukek1dgGj2Ov7jdAaH-1">
          <mxGeometry y="52" width="140" height="26" as="geometry" />
        </mxCell>
        <mxCell id="cPukek1dgGj2Ov7jdAaH-4" value="3、更新退款状态" style="text;strokeColor=none;fillColor=none;align=left;verticalAlign=top;spacingLeft=4;spacingRight=4;overflow=hidden;rotatable=0;points=[[0,0.5],[1,0.5]];portConstraint=eastwest;" vertex="1" parent="cPukek1dgGj2Ov7jdAaH-1">
          <mxGeometry y="78" width="140" height="26" as="geometry" />
        </mxCell>
        <mxCell id="cPukek1dgGj2Ov7jdAaH-7" value="退款成功/失败回调" style="swimlane;fontStyle=0;childLayout=stackLayout;horizontal=1;startSize=26;fillColor=none;horizontalStack=0;resizeParent=1;resizeParentMax=0;resizeLast=0;collapsible=1;marginBottom=0;comic=0;strokeColor=#666666;strokeWidth=1;" vertex="1" parent="Cn_z-d5cZoHQZC6IPEJ7-8">
          <mxGeometry x="20" y="560" width="150" height="100" as="geometry" />
        </mxCell>
        <mxCell id="cPukek1dgGj2Ov7jdAaH-8" value="1、修改提现状态" style="text;strokeColor=none;fillColor=none;align=left;verticalAlign=top;spacingLeft=4;spacingRight=4;overflow=hidden;rotatable=0;points=[[0,0.5],[1,0.5]];portConstraint=eastwest;" vertex="1" parent="cPukek1dgGj2Ov7jdAaH-7">
          <mxGeometry y="26" width="150" height="26" as="geometry" />
        </mxCell>
        <mxCell id="cPukek1dgGj2Ov7jdAaH-9" value="2、更新退款状态" style="text;strokeColor=none;fillColor=none;align=left;verticalAlign=top;spacingLeft=4;spacingRight=4;overflow=hidden;rotatable=0;points=[[0,0.5],[1,0.5]];portConstraint=eastwest;perimeterSpacing=1;" vertex="1" parent="cPukek1dgGj2Ov7jdAaH-7">
          <mxGeometry y="52" width="150" height="48" as="geometry" />
        </mxCell>
        <mxCell id="yOeyIR5VE72a3LLRmRfE-19" style="edgeStyle=orthogonalEdgeStyle;rounded=0;orthogonalLoop=1;jettySize=auto;html=1;entryX=0;entryY=0.5;entryDx=0;entryDy=0;" edge="1" parent="Cn_z-d5cZoHQZC6IPEJ7-1" source="Cn_z-d5cZoHQZC6IPEJ7-6" target="Cn_z-d5cZoHQZC6IPEJ7-13">
          <mxGeometry relative="1" as="geometry" />
        </mxCell>
        <mxCell id="NsUDPSb2mLZtXg8WYORT-8" style="edgeStyle=orthogonalEdgeStyle;rounded=0;orthogonalLoop=1;jettySize=auto;html=1;entryX=1;entryY=0.75;entryDx=0;entryDy=0;exitX=0.25;exitY=1;exitDx=0;exitDy=0;strokeColor=#009900;" edge="1" parent="Cn_z-d5cZoHQZC6IPEJ7-1" source="NsUDPSb2mLZtXg8WYORT-0" target="X7omMuUb_odI4xtAwAQJ-2">
          <mxGeometry relative="1" as="geometry">
            <mxPoint x="380" y="400" as="sourcePoint" />
            <Array as="points">
              <mxPoint x="380" y="393" />
              <mxPoint x="380" y="400" />
            </Array>
          </mxGeometry>
        </mxCell>
        <mxCell id="NsUDPSb2mLZtXg8WYORT-85" value="后台系统" style="swimlane;" vertex="1" parent="Cn_z-d5cZoHQZC6IPEJ7-1">
          <mxGeometry x="900" y="90" width="550" height="760" as="geometry" />
        </mxCell>
        <mxCell id="NsUDPSb2mLZtXg8WYORT-149" style="edgeStyle=orthogonalEdgeStyle;rounded=0;orthogonalLoop=1;jettySize=auto;html=1;entryX=0.5;entryY=0;entryDx=0;entryDy=0;strokeWidth=1;" edge="1" parent="NsUDPSb2mLZtXg8WYORT-85" source="NsUDPSb2mLZtXg8WYORT-87" target="NsUDPSb2mLZtXg8WYORT-89">
          <mxGeometry relative="1" as="geometry" />
        </mxCell>
        <mxCell id="NsUDPSb2mLZtXg8WYORT-87" value="提现记录&lt;br&gt;（待审核）" style="rounded=0;whiteSpace=wrap;html=1;" vertex="1" parent="NsUDPSb2mLZtXg8WYORT-85">
          <mxGeometry x="231.43" y="110" width="80" height="40" as="geometry" />
        </mxCell>
        <mxCell id="NsUDPSb2mLZtXg8WYORT-150" style="edgeStyle=orthogonalEdgeStyle;rounded=0;orthogonalLoop=1;jettySize=auto;html=1;entryX=0.5;entryY=0;entryDx=0;entryDy=0;strokeWidth=1;" edge="1" parent="NsUDPSb2mLZtXg8WYORT-85" source="NsUDPSb2mLZtXg8WYORT-88" target="NsUDPSb2mLZtXg8WYORT-87">
          <mxGeometry relative="1" as="geometry" />
        </mxCell>
        <mxCell id="NsUDPSb2mLZtXg8WYORT-88" value="&lt;br&gt;&lt;br&gt;运营&lt;br&gt;人员" style="shape=actor;whiteSpace=wrap;html=1;" vertex="1" parent="NsUDPSb2mLZtXg8WYORT-85">
          <mxGeometry x="252.87" y="27" width="37.13" height="63" as="geometry" />
        </mxCell>
        <mxCell id="NsUDPSb2mLZtXg8WYORT-159" style="edgeStyle=orthogonalEdgeStyle;rounded=0;orthogonalLoop=1;jettySize=auto;html=1;entryX=0.5;entryY=0;entryDx=0;entryDy=0;strokeWidth=1;" edge="1" parent="NsUDPSb2mLZtXg8WYORT-85" source="NsUDPSb2mLZtXg8WYORT-89" target="NsUDPSb2mLZtXg8WYORT-102">
          <mxGeometry relative="1" as="geometry" />
        </mxCell>
        <mxCell id="NsUDPSb2mLZtXg8WYORT-161" value="通过" style="edgeLabel;html=1;align=center;verticalAlign=middle;resizable=0;points=[];" vertex="1" connectable="0" parent="NsUDPSb2mLZtXg8WYORT-159">
          <mxGeometry x="0.231" y="1" relative="1" as="geometry">
            <mxPoint as="offset" />
          </mxGeometry>
        </mxCell>
        <mxCell id="NsUDPSb2mLZtXg8WYORT-160" style="edgeStyle=orthogonalEdgeStyle;rounded=0;orthogonalLoop=1;jettySize=auto;html=1;entryX=0.5;entryY=0;entryDx=0;entryDy=0;strokeWidth=1;" edge="1" parent="NsUDPSb2mLZtXg8WYORT-85" source="NsUDPSb2mLZtXg8WYORT-89" target="NsUDPSb2mLZtXg8WYORT-92">
          <mxGeometry relative="1" as="geometry" />
        </mxCell>
        <mxCell id="NsUDPSb2mLZtXg8WYORT-162" value="拒绝" style="edgeLabel;html=1;align=center;verticalAlign=middle;resizable=0;points=[];" vertex="1" connectable="0" parent="NsUDPSb2mLZtXg8WYORT-160">
          <mxGeometry x="0.0869" y="1" relative="1" as="geometry">
            <mxPoint as="offset" />
          </mxGeometry>
        </mxCell>
        <mxCell id="NsUDPSb2mLZtXg8WYORT-89" value="审核" style="rhombus;whiteSpace=wrap;html=1;strokeColor=#000000;strokeWidth=2;fillColor=none;" vertex="1" parent="NsUDPSb2mLZtXg8WYORT-85">
          <mxGeometry x="231.43" y="180" width="80" height="80" as="geometry" />
        </mxCell>
        <mxCell id="NsUDPSb2mLZtXg8WYORT-156" style="edgeStyle=orthogonalEdgeStyle;rounded=0;orthogonalLoop=1;jettySize=auto;html=1;entryX=0.5;entryY=0;entryDx=0;entryDy=0;strokeWidth=1;" edge="1" parent="NsUDPSb2mLZtXg8WYORT-85" source="NsUDPSb2mLZtXg8WYORT-92" target="NsUDPSb2mLZtXg8WYORT-96">
          <mxGeometry relative="1" as="geometry" />
        </mxCell>
        <mxCell id="NsUDPSb2mLZtXg8WYORT-92" value="是否待审核状态" style="rounded=0;whiteSpace=wrap;html=1;" vertex="1" parent="NsUDPSb2mLZtXg8WYORT-85">
          <mxGeometry x="330" y="240" width="120" height="30" as="geometry" />
        </mxCell>
        <mxCell id="NsUDPSb2mLZtXg8WYORT-164" style="edgeStyle=orthogonalEdgeStyle;rounded=0;orthogonalLoop=1;jettySize=auto;html=1;entryX=1;entryY=0.75;entryDx=0;entryDy=0;strokeWidth=1;" edge="1" parent="NsUDPSb2mLZtXg8WYORT-85" source="NsUDPSb2mLZtXg8WYORT-93" target="NsUDPSb2mLZtXg8WYORT-88">
          <mxGeometry relative="1" as="geometry">
            <Array as="points">
              <mxPoint x="420" y="74" />
            </Array>
          </mxGeometry>
        </mxCell>
        <mxCell id="NsUDPSb2mLZtXg8WYORT-93" value="状态消息&lt;br&gt;（成功/失败）" style="rounded=0;whiteSpace=wrap;html=1;dashed=1;" vertex="1" parent="NsUDPSb2mLZtXg8WYORT-85">
          <mxGeometry x="370" y="110" width="80" height="40" as="geometry" />
        </mxCell>
        <mxCell id="NsUDPSb2mLZtXg8WYORT-165" style="edgeStyle=orthogonalEdgeStyle;rounded=0;orthogonalLoop=1;jettySize=auto;html=1;entryX=0.5;entryY=0;entryDx=0;entryDy=0;strokeWidth=1;" edge="1" parent="NsUDPSb2mLZtXg8WYORT-85" source="NsUDPSb2mLZtXg8WYORT-96" target="NsUDPSb2mLZtXg8WYORT-97">
          <mxGeometry relative="1" as="geometry" />
        </mxCell>
        <mxCell id="NsUDPSb2mLZtXg8WYORT-96" value="是否有对应&lt;br&gt;的退款记录" style="rounded=0;whiteSpace=wrap;html=1;" vertex="1" parent="NsUDPSb2mLZtXg8WYORT-85">
          <mxGeometry x="330" y="297" width="120" height="30" as="geometry" />
        </mxCell>
        <mxCell id="NsUDPSb2mLZtXg8WYORT-166" style="edgeStyle=orthogonalEdgeStyle;rounded=0;orthogonalLoop=1;jettySize=auto;html=1;entryX=0.5;entryY=0;entryDx=0;entryDy=0;strokeWidth=1;" edge="1" parent="NsUDPSb2mLZtXg8WYORT-85" source="NsUDPSb2mLZtXg8WYORT-97" target="NsUDPSb2mLZtXg8WYORT-98">
          <mxGeometry relative="1" as="geometry" />
        </mxCell>
        <mxCell id="NsUDPSb2mLZtXg8WYORT-97" value="退款记录和&lt;br&gt;返还记录是否一致" style="rounded=0;whiteSpace=wrap;html=1;" vertex="1" parent="NsUDPSb2mLZtXg8WYORT-85">
          <mxGeometry x="330" y="350" width="120" height="38" as="geometry" />
        </mxCell>
        <mxCell id="NsUDPSb2mLZtXg8WYORT-167" style="edgeStyle=orthogonalEdgeStyle;rounded=0;orthogonalLoop=1;jettySize=auto;html=1;entryX=0.5;entryY=0;entryDx=0;entryDy=0;strokeWidth=1;" edge="1" parent="NsUDPSb2mLZtXg8WYORT-85" source="NsUDPSb2mLZtXg8WYORT-98" target="NsUDPSb2mLZtXg8WYORT-99">
          <mxGeometry relative="1" as="geometry" />
        </mxCell>
        <mxCell id="NsUDPSb2mLZtXg8WYORT-98" value="退还 &lt;br&gt;储备金充值记录的&lt;br&gt;&amp;nbsp;退款金额" style="rounded=0;whiteSpace=wrap;html=1;" vertex="1" parent="NsUDPSb2mLZtXg8WYORT-85">
          <mxGeometry x="330" y="416" width="120" height="50" as="geometry" />
        </mxCell>
        <mxCell id="NsUDPSb2mLZtXg8WYORT-168" style="edgeStyle=orthogonalEdgeStyle;rounded=0;orthogonalLoop=1;jettySize=auto;html=1;entryX=0.5;entryY=0;entryDx=0;entryDy=0;strokeWidth=1;" edge="1" parent="NsUDPSb2mLZtXg8WYORT-85" source="NsUDPSb2mLZtXg8WYORT-99" target="NsUDPSb2mLZtXg8WYORT-101">
          <mxGeometry relative="1" as="geometry" />
        </mxCell>
        <mxCell id="NsUDPSb2mLZtXg8WYORT-99" value="删除 &lt;br&gt;商家储备金明细表 &lt;br&gt;中的提现记录" style="rounded=0;whiteSpace=wrap;html=1;" vertex="1" parent="NsUDPSb2mLZtXg8WYORT-85">
          <mxGeometry x="330" y="499" width="120" height="60" as="geometry" />
        </mxCell>
        <mxCell id="NsUDPSb2mLZtXg8WYORT-100" style="edgeStyle=orthogonalEdgeStyle;rounded=0;orthogonalLoop=1;jettySize=auto;html=1;exitX=0.5;exitY=1;exitDx=0;exitDy=0;" edge="1" parent="NsUDPSb2mLZtXg8WYORT-85" source="NsUDPSb2mLZtXg8WYORT-99" target="NsUDPSb2mLZtXg8WYORT-99">
          <mxGeometry relative="1" as="geometry" />
        </mxCell>
        <mxCell id="NsUDPSb2mLZtXg8WYORT-169" style="edgeStyle=orthogonalEdgeStyle;rounded=0;orthogonalLoop=1;jettySize=auto;html=1;entryX=0.5;entryY=0;entryDx=0;entryDy=0;strokeWidth=1;" edge="1" parent="NsUDPSb2mLZtXg8WYORT-85" source="NsUDPSb2mLZtXg8WYORT-101" target="NsUDPSb2mLZtXg8WYORT-105">
          <mxGeometry relative="1" as="geometry" />
        </mxCell>
        <mxCell id="NsUDPSb2mLZtXg8WYORT-101" value="恢复代理商&lt;br&gt;储备金余额&lt;br&gt;和 累计消耗储备金" style="rounded=0;whiteSpace=wrap;html=1;" vertex="1" parent="NsUDPSb2mLZtXg8WYORT-85">
          <mxGeometry x="330" y="579" width="120" height="60" as="geometry" />
        </mxCell>
        <mxCell id="NsUDPSb2mLZtXg8WYORT-155" style="edgeStyle=orthogonalEdgeStyle;rounded=0;orthogonalLoop=1;jettySize=auto;html=1;entryX=0.5;entryY=0;entryDx=0;entryDy=0;strokeWidth=1;" edge="1" parent="NsUDPSb2mLZtXg8WYORT-85" source="NsUDPSb2mLZtXg8WYORT-102" target="NsUDPSb2mLZtXg8WYORT-103">
          <mxGeometry relative="1" as="geometry" />
        </mxCell>
        <mxCell id="NsUDPSb2mLZtXg8WYORT-102" value="是否待审核状态" style="rounded=0;whiteSpace=wrap;html=1;" vertex="1" parent="NsUDPSb2mLZtXg8WYORT-85">
          <mxGeometry x="90" y="240" width="120" height="30" as="geometry" />
        </mxCell>
        <mxCell id="NsUDPSb2mLZtXg8WYORT-170" style="edgeStyle=orthogonalEdgeStyle;rounded=0;orthogonalLoop=1;jettySize=auto;html=1;entryX=0.5;entryY=0;entryDx=0;entryDy=0;strokeWidth=1;" edge="1" parent="NsUDPSb2mLZtXg8WYORT-85" source="NsUDPSb2mLZtXg8WYORT-103" target="NsUDPSb2mLZtXg8WYORT-104">
          <mxGeometry relative="1" as="geometry" />
        </mxCell>
        <mxCell id="NsUDPSb2mLZtXg8WYORT-103" value="是否有对应&lt;br&gt;的退款记录" style="rounded=0;whiteSpace=wrap;html=1;" vertex="1" parent="NsUDPSb2mLZtXg8WYORT-85">
          <mxGeometry x="90" y="296" width="120" height="30" as="geometry" />
        </mxCell>
        <mxCell id="NsUDPSb2mLZtXg8WYORT-104" value="修改提现状态&lt;br&gt;为 【已通过】" style="rounded=0;whiteSpace=wrap;html=1;" vertex="1" parent="NsUDPSb2mLZtXg8WYORT-85">
          <mxGeometry x="90" y="349.5" width="120" height="38.5" as="geometry" />
        </mxCell>
        <mxCell id="NsUDPSb2mLZtXg8WYORT-105" value="修改提现状态&lt;br&gt;为 【已拒绝】" style="rounded=0;whiteSpace=wrap;html=1;" vertex="1" parent="NsUDPSb2mLZtXg8WYORT-85">
          <mxGeometry x="330" y="660" width="120" height="35" as="geometry" />
        </mxCell>
        <mxCell id="NsUDPSb2mLZtXg8WYORT-109" value="发送消息队列&lt;br&gt;(通知退款)" style="rounded=0;whiteSpace=wrap;html=1;" vertex="1" parent="NsUDPSb2mLZtXg8WYORT-85">
          <mxGeometry x="90" y="411" width="119" height="46" as="geometry" />
        </mxCell>
        <mxCell id="NsUDPSb2mLZtXg8WYORT-125" value="状态消息&lt;br&gt;（成功/失败）" style="rounded=0;whiteSpace=wrap;html=1;dashed=1;" vertex="1" parent="NsUDPSb2mLZtXg8WYORT-85">
          <mxGeometry x="90" y="110" width="80" height="40" as="geometry" />
        </mxCell>
        <mxCell id="NsUDPSb2mLZtXg8WYORT-130" value="" style="strokeWidth=2;html=1;shape=mxgraph.flowchart.annotation_1;align=left;pointerEvents=1;fillColor=none;" vertex="1" parent="NsUDPSb2mLZtXg8WYORT-85">
          <mxGeometry x="70" y="258" width="21" height="172" as="geometry" />
        </mxCell>
        <mxCell id="NsUDPSb2mLZtXg8WYORT-143" style="edgeStyle=orthogonalEdgeStyle;rounded=0;orthogonalLoop=1;jettySize=auto;html=1;exitX=0;exitY=0.5;exitDx=0;exitDy=0;exitPerimeter=0;entryX=1;entryY=0.75;entryDx=0;entryDy=0;strokeWidth=1;strokeColor=#FF6666;" edge="1" parent="NsUDPSb2mLZtXg8WYORT-85" source="NsUDPSb2mLZtXg8WYORT-132" target="NsUDPSb2mLZtXg8WYORT-93">
          <mxGeometry relative="1" as="geometry">
            <Array as="points">
              <mxPoint x="480" y="466" />
              <mxPoint x="480" y="140" />
            </Array>
          </mxGeometry>
        </mxCell>
        <mxCell id="NsUDPSb2mLZtXg8WYORT-146" value="操作失败" style="edgeLabel;html=1;align=center;verticalAlign=middle;resizable=0;points=[];" vertex="1" connectable="0" parent="NsUDPSb2mLZtXg8WYORT-143">
          <mxGeometry x="0.5215" y="2" relative="1" as="geometry">
            <mxPoint x="-1.5" as="offset" />
          </mxGeometry>
        </mxCell>
        <mxCell id="NsUDPSb2mLZtXg8WYORT-132" value="" style="strokeWidth=2;html=1;shape=mxgraph.flowchart.annotation_1;align=left;pointerEvents=1;fillColor=none;direction=west;" vertex="1" parent="NsUDPSb2mLZtXg8WYORT-85">
          <mxGeometry x="450" y="260" width="20" height="420" as="geometry" />
        </mxCell>
        <mxCell id="NsUDPSb2mLZtXg8WYORT-138" style="edgeStyle=orthogonalEdgeStyle;rounded=0;orthogonalLoop=1;jettySize=auto;html=1;exitX=0.25;exitY=1;exitDx=0;exitDy=0;strokeWidth=1;entryX=0;entryY=0.25;entryDx=0;entryDy=0;strokeColor=#009900;" edge="1" parent="NsUDPSb2mLZtXg8WYORT-85" source="NsUDPSb2mLZtXg8WYORT-109" target="NsUDPSb2mLZtXg8WYORT-125">
          <mxGeometry relative="1" as="geometry">
            <mxPoint x="50" y="120" as="targetPoint" />
            <Array as="points">
              <mxPoint x="150" y="457" />
              <mxPoint x="150" y="470" />
              <mxPoint x="30" y="470" />
              <mxPoint x="30" y="120" />
            </Array>
          </mxGeometry>
        </mxCell>
        <mxCell id="NsUDPSb2mLZtXg8WYORT-142" value="操作成功" style="edgeLabel;html=1;align=center;verticalAlign=middle;resizable=0;points=[];" vertex="1" connectable="0" parent="NsUDPSb2mLZtXg8WYORT-138">
          <mxGeometry x="-0.6608" relative="1" as="geometry">
            <mxPoint x="16.2" as="offset" />
          </mxGeometry>
        </mxCell>
        <mxCell id="NsUDPSb2mLZtXg8WYORT-140" style="edgeStyle=orthogonalEdgeStyle;rounded=0;orthogonalLoop=1;jettySize=auto;html=1;strokeWidth=1;entryX=0;entryY=0.75;entryDx=0;entryDy=0;strokeColor=#FF6666;" edge="1" parent="NsUDPSb2mLZtXg8WYORT-85" source="NsUDPSb2mLZtXg8WYORT-130" target="NsUDPSb2mLZtXg8WYORT-125">
          <mxGeometry relative="1" as="geometry">
            <mxPoint x="50" y="140" as="targetPoint" />
            <Array as="points">
              <mxPoint x="60" y="334" />
              <mxPoint x="60" y="140" />
            </Array>
          </mxGeometry>
        </mxCell>
        <mxCell id="NsUDPSb2mLZtXg8WYORT-141" value="操作失败" style="edgeLabel;html=1;align=center;verticalAlign=middle;resizable=0;points=[];" vertex="1" connectable="0" parent="NsUDPSb2mLZtXg8WYORT-140">
          <mxGeometry x="0.2308" y="-3" relative="1" as="geometry">
            <mxPoint as="offset" />
          </mxGeometry>
        </mxCell>
        <mxCell id="NsUDPSb2mLZtXg8WYORT-145" style="edgeStyle=orthogonalEdgeStyle;rounded=0;orthogonalLoop=1;jettySize=auto;html=1;strokeWidth=1;entryX=1;entryY=0.25;entryDx=0;entryDy=0;strokeColor=#009900;" edge="1" parent="NsUDPSb2mLZtXg8WYORT-85" source="NsUDPSb2mLZtXg8WYORT-105" target="NsUDPSb2mLZtXg8WYORT-93">
          <mxGeometry relative="1" as="geometry">
            <mxPoint x="530" y="530" as="targetPoint" />
            <Array as="points">
              <mxPoint x="390" y="710" />
              <mxPoint x="510" y="710" />
              <mxPoint x="510" y="120" />
            </Array>
          </mxGeometry>
        </mxCell>
        <mxCell id="NsUDPSb2mLZtXg8WYORT-147" value="操作成功" style="edgeLabel;html=1;align=center;verticalAlign=middle;resizable=0;points=[];" vertex="1" connectable="0" parent="NsUDPSb2mLZtXg8WYORT-145">
          <mxGeometry x="-0.8529" relative="1" as="geometry">
            <mxPoint as="offset" />
          </mxGeometry>
        </mxCell>
        <mxCell id="NsUDPSb2mLZtXg8WYORT-163" style="edgeStyle=orthogonalEdgeStyle;rounded=0;orthogonalLoop=1;jettySize=auto;html=1;strokeWidth=1;entryX=0;entryY=0.75;entryDx=0;entryDy=0;" edge="1" parent="NsUDPSb2mLZtXg8WYORT-85" source="NsUDPSb2mLZtXg8WYORT-125" target="NsUDPSb2mLZtXg8WYORT-88">
          <mxGeometry relative="1" as="geometry">
            <mxPoint x="140" y="50" as="targetPoint" />
            <Array as="points">
              <mxPoint x="130" y="74" />
            </Array>
          </mxGeometry>
        </mxCell>
        <mxCell id="NsUDPSb2mLZtXg8WYORT-188" value="" style="endArrow=classic;html=1;entryX=1;entryY=0.5;entryDx=0;entryDy=0;" edge="1" parent="NsUDPSb2mLZtXg8WYORT-85" target="cPukek1dgGj2Ov7jdAaH-3">
          <mxGeometry relative="1" as="geometry">
            <mxPoint x="170" y="457" as="sourcePoint" />
            <mxPoint x="170" y="727" as="targetPoint" />
            <Array as="points">
              <mxPoint x="170" y="615" />
            </Array>
          </mxGeometry>
        </mxCell>
        <mxCell id="NsUDPSb2mLZtXg8WYORT-189" value="" style="shape=message;html=1;outlineConnect=0;" vertex="1" parent="NsUDPSb2mLZtXg8WYORT-188">
          <mxGeometry width="20" height="14" relative="1" as="geometry">
            <mxPoint x="-10" y="-7" as="offset" />
          </mxGeometry>
        </mxCell>
        <mxCell id="cPukek1dgGj2Ov7jdAaH-5" value="消息队列" style="edgeLabel;html=1;align=center;verticalAlign=middle;resizable=0;points=[];" vertex="1" connectable="0" parent="NsUDPSb2mLZtXg8WYORT-188">
          <mxGeometry x="-0.4491" y="1" relative="1" as="geometry">
            <mxPoint as="offset" />
          </mxGeometry>
        </mxCell>
        <mxCell id="NsUDPSb2mLZtXg8WYORT-193" style="edgeStyle=orthogonalEdgeStyle;rounded=0;orthogonalLoop=1;jettySize=auto;html=1;strokeColor=#000000;strokeWidth=1;" edge="1" parent="Cn_z-d5cZoHQZC6IPEJ7-1" source="NsUDPSb2mLZtXg8WYORT-103">
          <mxGeometry relative="1" as="geometry">
            <mxPoint x="990" y="401" as="targetPoint" />
          </mxGeometry>
        </mxCell>
        <mxCell id="NsUDPSb2mLZtXg8WYORT-196" style="edgeStyle=orthogonalEdgeStyle;rounded=0;orthogonalLoop=1;jettySize=auto;html=1;strokeColor=#000000;strokeWidth=1;" edge="1" parent="Cn_z-d5cZoHQZC6IPEJ7-1" source="NsUDPSb2mLZtXg8WYORT-104">
          <mxGeometry relative="1" as="geometry">
            <mxPoint x="990" y="459" as="targetPoint" />
          </mxGeometry>
        </mxCell>
        <mxCell id="NsUDPSb2mLZtXg8WYORT-201" style="edgeStyle=orthogonalEdgeStyle;rounded=0;orthogonalLoop=1;jettySize=auto;html=1;strokeColor=#000000;strokeWidth=1;" edge="1" parent="Cn_z-d5cZoHQZC6IPEJ7-1" source="NsUDPSb2mLZtXg8WYORT-96">
          <mxGeometry relative="1" as="geometry">
            <mxPoint x="1390" y="402" as="targetPoint" />
          </mxGeometry>
        </mxCell>
        <mxCell id="NsUDPSb2mLZtXg8WYORT-202" style="edgeStyle=orthogonalEdgeStyle;rounded=0;orthogonalLoop=1;jettySize=auto;html=1;strokeColor=#000000;strokeWidth=1;" edge="1" parent="Cn_z-d5cZoHQZC6IPEJ7-1" source="NsUDPSb2mLZtXg8WYORT-97">
          <mxGeometry relative="1" as="geometry">
            <mxPoint x="1390" y="459" as="targetPoint" />
          </mxGeometry>
        </mxCell>
        <mxCell id="NsUDPSb2mLZtXg8WYORT-206" style="edgeStyle=orthogonalEdgeStyle;rounded=0;orthogonalLoop=1;jettySize=auto;html=1;strokeColor=#000000;strokeWidth=1;" edge="1" parent="Cn_z-d5cZoHQZC6IPEJ7-1" source="NsUDPSb2mLZtXg8WYORT-98">
          <mxGeometry relative="1" as="geometry">
            <mxPoint x="1390" y="531" as="targetPoint" />
          </mxGeometry>
        </mxCell>
        <mxCell id="NsUDPSb2mLZtXg8WYORT-207" style="edgeStyle=orthogonalEdgeStyle;rounded=0;orthogonalLoop=1;jettySize=auto;html=1;strokeColor=#000000;strokeWidth=1;" edge="1" parent="Cn_z-d5cZoHQZC6IPEJ7-1" source="NsUDPSb2mLZtXg8WYORT-99">
          <mxGeometry relative="1" as="geometry">
            <mxPoint x="1390" y="619" as="targetPoint" />
          </mxGeometry>
        </mxCell>
        <mxCell id="NsUDPSb2mLZtXg8WYORT-209" style="edgeStyle=orthogonalEdgeStyle;rounded=0;orthogonalLoop=1;jettySize=auto;html=1;strokeColor=#000000;strokeWidth=1;" edge="1" parent="Cn_z-d5cZoHQZC6IPEJ7-1" source="NsUDPSb2mLZtXg8WYORT-101">
          <mxGeometry relative="1" as="geometry">
            <mxPoint x="1390" y="699" as="targetPoint" />
          </mxGeometry>
        </mxCell>
        <mxCell id="cPukek1dgGj2Ov7jdAaH-11" style="edgeStyle=orthogonalEdgeStyle;rounded=0;orthogonalLoop=1;jettySize=auto;html=1;startSize=26;strokeColor=#000000;strokeWidth=1;" edge="1" parent="Cn_z-d5cZoHQZC6IPEJ7-1" source="Cn_z-d5cZoHQZC6IPEJ7-18">
          <mxGeometry relative="1" as="geometry">
            <mxPoint x="700" y="550" as="targetPoint" />
          </mxGeometry>
        </mxCell>
        <mxCell id="cPukek1dgGj2Ov7jdAaH-18" style="edgeStyle=orthogonalEdgeStyle;rounded=0;orthogonalLoop=1;jettySize=auto;html=1;startSize=26;strokeColor=#000000;strokeWidth=1;" edge="1" parent="Cn_z-d5cZoHQZC6IPEJ7-1">
          <mxGeometry relative="1" as="geometry">
            <mxPoint x="590" y="744" as="targetPoint" />
            <mxPoint x="690" y="944" as="sourcePoint" />
          </mxGeometry>
        </mxCell>
        <mxCell id="cPukek1dgGj2Ov7jdAaH-12" value="&lt;span style=&quot;font-weight: 700&quot;&gt;adaPay三方支付&lt;/span&gt;" style="shape=process;whiteSpace=wrap;html=1;backgroundOutline=1;comic=0;startSize=26;strokeColor=#666666;strokeWidth=1;fillColor=none;" vertex="1" parent="Cn_z-d5cZoHQZC6IPEJ7-1">
          <mxGeometry x="690" y="910" width="160" height="80" as="geometry" />
        </mxCell>
        <mxCell id="cPukek1dgGj2Ov7jdAaH-14" style="edgeStyle=orthogonalEdgeStyle;rounded=0;orthogonalLoop=1;jettySize=auto;html=1;entryX=0.5;entryY=0;entryDx=0;entryDy=0;startSize=26;strokeColor=#000000;strokeWidth=1;" edge="1" parent="Cn_z-d5cZoHQZC6IPEJ7-1" source="cPukek1dgGj2Ov7jdAaH-1" target="cPukek1dgGj2Ov7jdAaH-12">
          <mxGeometry relative="1" as="geometry" />
        </mxCell>
      </root>
    </mxGraphModel>
  </diagram>
</mxfile>
